Coordinates
version=1
nRows=16
nColumns=36
inDegrees=yes

Units are S.I. units (second, meters, Newtons, ...)
If the header above contains a line with 'inDegrees', this indicates whether rotational values are in degrees (yes) or radians (no).

endheader
time	pelvis_tilt	pelvis_list	pelvis_rotation	pelvis_tx	pelvis_ty	pelvis_tz	hip_flexion_r	hip_adduction_r	hip_rotation_r	knee_angle_r	knee_angle_r_beta	ankle_angle_r	subtalar_angle_r	mtp_angle_r	hip_flexion_l	hip_adduction_l	hip_rotation_l	knee_angle_l	knee_angle_l_beta	ankle_angle_l	subtalar_angle_l	mtp_angle_l	lumbar_extension	lumbar_bending	lumbar_rotation	arm_flex_r	arm_add_r	arm_rot_r	elbow_flex_r	pro_sup_r	arm_flex_l	arm_add_l	arm_rot_l	elbow_flex_l	pro_sup_l
      0.00000000	      2.63990924	     -1.92305213	      0.27434759	      1.10514185	      0.91378949	      0.67087998	     18.20214121	      0.11434371	      0.24984175	      6.10048466	      0.10647354	      5.05820973	     -4.12614622	     -7.08282786	    -14.04730906	     -2.24141529	      2.67588105	     14.23473605	      0.24844301	     18.16646054	    -11.29967202	     -7.08282786	    -18.58388229	      2.89602504	      1.65349806	      2.62148742	    -11.65208233	    -11.07009002	     24.55499219	     89.38734024	     16.97960084	     -8.34428718	     15.99014508	     22.37237413	     85.97002250
      0.01666670	      1.67287305	     -1.54608275	      0.77811217	      1.10648032	      0.90934195	      0.67211083	     19.70151638	     -0.37015519	     -0.02869010	      8.34411919	      0.14563235	      5.87252279	     -3.38158741	     -7.09263950	    -12.57831491	     -2.28206034	      2.13952865	     16.84847991	      0.29406145	     17.87061924	    -12.10317023	     -7.09263950	    -18.48331729	      2.78792575	      0.91047129	      2.79384970	    -11.98592497	    -11.35454744	     24.45552934	     89.08681086	     16.91182670	     -8.25757029	     16.08595929	     22.56303961	     85.79107540
      0.03333330	      0.27935925	     -1.90353849	      0.60744151	      1.11069544	      0.90961998	      0.67537917	     20.61177832	     -0.13109588	      1.53524556	      8.50005080	      0.14835387	      3.98543136	     -3.00356843	     -7.10229425	    -11.28673830	     -2.91666373	      3.14759665	     19.40525127	      0.33868553	     18.90403160	    -11.19928032	     -7.10229425	    -16.74653222	      3.69343196	      0.28865015	      3.14460500	    -12.26153392	    -11.43512102	     23.70234792	     88.76754571	     15.98225366	     -8.00267000	     16.08908634	     22.08233793	     85.52756061
      0.05000000	      0.11157096	     -2.44410838	      0.23466061	      1.11613508	      0.91261941	      0.68159383	     20.34510980	      0.54523262	      2.27779778	      9.82530883	      0.17148399	      3.02922685	     -2.47362765	     -7.10522711	    -11.50766160	     -3.85200279	      2.61191867	     21.48345870	      0.37495709	     18.29117811	    -11.10344333	     -7.10522711	    -16.61184263	      4.61332393	      0.40016838	      3.38116846	    -12.54390916	    -11.43335798	     23.45496763	     88.65856214	     15.30231442	     -7.81108447	     16.01225410	     21.81197552	     85.39803505
      0.06666670	      0.11918454	     -3.13593137	     -0.44283520	      1.12025722	      0.91474060	      0.68999762	     20.01066917	      1.60227477	      3.09593644	     11.49056224	      0.20054814	      2.21023074	     -2.40922314	     -7.19860398	    -11.77374854	     -4.99406891	      1.34790351	     23.84418187	      0.41615948	     17.26551258	    -10.66040593	     -7.19860398	    -16.26834030	      5.59932077	     -0.34214366	      4.95426419	    -12.92259072	     -6.87841976	     21.04170753	     84.59232883	     13.42972241	     -7.61398666	     12.42313838	     22.12055191	     80.83441028
      0.08333330	      0.49274824	     -3.86352560	     -1.17824498	      1.12257037	      0.91618482	      0.69786612	     19.26273075	      2.79211392	      3.60580638	     13.25056487	      0.23126598	      2.11876541	     -2.47152931	     -7.20097636	    -11.87257055	     -6.17689102	     -0.09774354	     26.87701556	      0.46909241	     15.19869298	    -10.78511209	     -7.20097636	    -16.59188341	      6.53771466	      0.53694371	      5.13820925	    -13.17520864	     -5.98016706	     20.56123240	     83.31261056	     12.66758169	     -7.13540137	     11.27748187	     21.73708478	     79.57047967
      0.10000000	      1.01291480	     -4.52997268	     -1.76121800	      1.12383612	      0.91964902	      0.70362025	     18.16856297	      3.98843477	      4.17156432	     14.78265028	      0.25800592	      2.55224924	     -3.08764562	     -7.21378946	    -11.30491268	     -7.39320397	     -1.51354714	     31.11753468	      0.54310344	     11.82362726	    -11.22090461	     -7.21378946	    -17.18537593	      7.39144414	      1.01219206	      5.58169560	    -13.49888771	     -3.16577353	     20.05678670	     81.66468346	     11.56241101	     -6.81293649	      9.27978580	     22.03891889	     77.88926169
      0.11666670	      1.65829010	     -5.04720634	     -2.12347176	      1.12448305	      0.92533391	      0.70879700	     16.70884999	      5.02044023	      4.42408558	     15.91886128	      0.27783654	      3.70201262	     -3.39501247	     -7.21950272	    -10.07973304	     -8.65638699	     -2.87812102	     36.41817701	      0.63561710	      7.27479177	    -11.21096407	     -7.21950272	    -17.95141575	      8.03538338	      1.85410654	      5.66368901	    -13.60183739	     -2.86095263	     20.01217601	     81.59408591	     10.99131406	     -6.61650630	      8.98608702	     21.97300670	     77.74292772
      0.13333330	      2.20366085	     -5.31485951	     -2.29500054	      1.12559734	      0.93150060	      0.71476573	     15.07874992	      5.73903704	      4.44023391	     16.35235883	      0.28540250	      4.81405177	     -3.44809574	     -7.26485446	     -8.42427760	     -9.59195555	     -3.48997393	     41.65320695	      0.72698561	      1.45263722	    -12.08486416	     -7.26485446	    -18.51024556	      8.32702972	      2.24232841	      6.07463923	    -13.89635280	      1.20794982	     19.45400616	     79.85275988	     10.43788744	     -6.38831246	      7.03476104	     21.77659698	     76.62939109
      0.15000000	      2.78674901	     -5.51755170	     -2.29812381	      1.12816761	      0.93624566	      0.71998669	     13.17610198	      6.33303845	      4.41149530	     16.18621790	      0.28250280	      5.49185554	     -3.45726775	     -7.27028157	     -6.85546046	    -10.37383951	     -3.78089995	     46.26641791	      0.80750133	     -3.48807445	    -12.43897913	     -7.27028157	    -19.01072379	      8.50806195	      3.00419460	      5.99812651	    -13.79233111	      1.48086142	     19.36490417	     79.83352655	     10.26220899	     -6.31772043	      6.76995684	     21.43534726	     76.61544281
      0.16666670	      3.36066585	     -5.51630488	     -2.15514721	      1.13150910	      0.93924003	      0.72282757	     11.12348344	      6.61094049	      4.32492507	     15.66046979	      0.27332676	      5.87903023	     -3.23095669	     -7.27614537	     -5.39969050	    -10.65655733	     -3.59696179	     50.11135264	      0.87460810	     -7.44656740	    -13.37760455	     -7.27614537	    -19.39867663	      8.47884491	      3.59481208	      5.82227587	    -13.65731050	      1.90670736	     19.30329754	     79.86523924	     10.28549491	     -6.21129735	      6.45208267	     20.65672819	     76.60967063
      0.18333330	      3.90910682	     -5.35456057	     -1.89835000	      1.13487977	      0.94000670	      0.72451000	      8.98554822	      6.65058790	      4.24810166	     14.96289785	      0.26115183	      6.18433523	     -2.91417494	     -7.28115969	     -3.95050861	    -10.62115085	     -3.24473744	     53.25678893	      0.92950632	     -9.51306924	    -14.27885678	     -7.28115969	    -19.73585237	      8.28105072	      4.06022694	      5.65196218	    -13.49672410	      2.29315292	     19.30618024	     79.89768720	     10.38638745	     -6.14788889	      6.21657907	     19.84461951	     76.60852571
      0.20000000	      4.44850648	     -4.94913701	     -1.61460668	      1.13719875	      0.93853348	      0.72633122	      6.84012300	      6.36886379	      4.05286360	     14.24718577	      0.24866030	      6.72721111	     -2.23920620	     -7.27984661	     -2.37688978	    -10.26712026	     -2.93253483	     55.73284057	      0.97272157	     -9.83971425	    -15.65973657	     -7.27984661	    -19.99883439	      7.70880397	      4.60260541	      5.41994942	    -13.48245420	      3.58123612	     19.35606153	     79.32850620	     11.04099576	     -5.91260872	      6.06900266	     17.87205173	     76.51426501
      0.21666670	      4.89737602	     -4.37931712	     -1.36847142	      1.13697236	      0.93482882	      0.72833563	      4.92150386	      5.95318625	      4.17501614	     13.68710267	      0.23888501	      7.32938075	     -2.21326789	     -7.28208387	     -0.44289641	     -9.85331997	     -2.84022036	     57.84674511	      1.00961616	     -8.57410303	    -16.98357441	     -7.28208387	    -20.41083699	      6.91457803	      4.85723099	      5.44103505	    -13.27734270	      3.71693557	     19.55662183	     79.30872493	     11.07563359	     -6.07813059	      6.05979474	     17.70733415	     76.52676663
      0.23333330	      5.44573146	     -3.69415839	     -1.02964634	      1.13352480	      0.93265584	      0.72939559	      3.12825233	      5.33774465	      3.80262216	     13.35410781	      0.23307315	      8.24344761	     -1.78544328	     -7.30428756	      1.66193313	     -9.34903538	     -2.67611497	     59.58022901	      1.03987117	     -7.05465940	    -18.19983353	     -7.30428756	    -21.00347871	      6.02108848	      5.37866642	      5.10246256	    -13.39028296	      4.48326370	     20.59762186	     79.56528340	     11.80589684	     -6.08445904	      6.67290379	     16.43778378	     77.49496666
      0.25000000	      5.88137536	     -2.88143372	     -0.94673805	      1.12881196	      0.93489500	      0.72988853	      1.64529313	      4.58711495	      3.72639879	     13.17191485	      0.22989328	      9.36535941	     -1.40711829	     -7.30190473	      3.85925539	     -8.73083917	     -2.75030066	     60.79108641	      1.06100461	     -5.64016426	    -18.79729884	     -7.30190473	    -21.63382535	      4.99711025	      5.57676645	      5.33931178	    -13.26809923	      4.84938278	     21.21679428	     78.41609382	     12.03368082	     -6.26758171	      6.76935406	     16.34767431	     76.78697968
